# xmcd CD database file
#
# Track frame offsets:
#	151
#	8615
#	22967
#	39424
#	48046
#	60444
#	71974
#	80218
#	97554
#	109719
#	120441
#	126853
#	141047
#	149652
#	168809
#	176936
#	184445
#	198480
#	210021
#	229381
#	245632
#	270825
#	276301
#	315256
#
# Disc length: 4326 seconds
#
# Revision: 0
# Processed by: cddbd v1.5.2PL0 Copyright (c) Steve Scherf et al.
# Submitted via: CDex 1.70beta2
#
DISCID=4910e418
DTITLE=Tom Waits - Frank's wild demos
DYEAR=2005
DGENRE=Blues
TTITLE0=Frank' theme (open)
TTITLE1=Innocent when you dream (78)
TTITLE2=Blow wind blow
TTITLE3=Hang on St. Christopher
TTITLE4=Please wake me up
TTITLE5=Temptation
TTITLE6=Vocalese tune
TTITLE7=More than rain
TTITLE8=I'll take New York
TTITLE9=Track 10 not known
TTITLE10=Piano tune
TTITLE11=Train song
TTITLE12=Frank's theme (close)
TTITLE13=Strange weather - Bonus outs/variuos demos
TTITLE14=Poor little lamb - Bonus outs/variuos demos
TTITLE15=Bronx lullaby - Bonus outs/variuos demos
TTITLE16=The briar and the rose - Bonus outs/variuos demos
TTITLE17=Fish and bird - Bonus outs/variuos demos
TTITLE18=Wages of love - One from the heart demos
TTITLE19=Pickin' up after you - One from the heart demos
TTITLE20=I beg your pardon - One from the heart demos
TTITLE21=Candy apple red - One from the heart demos
TTITLE22=This ones from the heart - One from the heart demos
TTITLE23=Take me home - One from the heart demos
EXTD=YEAR: 2005
EXTT0=
EXTT1=
EXTT2=
EXTT3=
EXTT4=
EXTT5=
EXTT6=
EXTT7=
EXTT8=
EXTT9=
EXTT10=
EXTT11=
EXTT12=
EXTT13=
EXTT14=
EXTT15=
EXTT16=
EXTT17=
EXTT18=
EXTT19=
EXTT20=
EXTT21=
EXTT22=
EXTT23=
PLAYORDER=
